<svg xmlns="http://www.w3.org/2000/svg" xmlns:xlink="http://www.w3.org/1999/xlink" width="1920" zoomAndPan="magnify" viewBox="0 0 1440 165.000002" height="220" preserveAspectRatio="xMidYMid meet" version="1.0"><defs><clipPath id="4646014c69"><path d="M 4.335938 10 L 1435.660156 10 L 1435.660156 164.007812 L 4.335938 164.007812 Z M 4.335938 10 " clip-rule="nonzero"/></clipPath><clipPath id="a5ecb049fe"><path d="M 0.335938 4 L 1431.660156 4 L 1431.660156 154.007812 L 0.335938 154.007812 Z M 0.335938 4 " clip-rule="nonzero"/></clipPath><clipPath id="1edfae51fb"><path d="M 0.335938 0.257812 L 1431.660156 0.257812 L 1431.660156 129 L 0.335938 129 Z M 0.335938 0.257812 " clip-rule="nonzero"/></clipPath><clipPath id="f55bba0c88"><rect x="0" width="1432" y="0" height="155"/></clipPath></defs><g clip-path="url(#4646014c69)"><g transform="matrix(1, 0, 0, 1, 4, 10)"><g clip-path="url(#f55bba0c88)"><g clip-path="url(#a5ecb049fe)"><path fill="#121929" d="M 1431.664062 27.273438 L 1312.386719 72.003906 L 1185.652344 4.910156 L 0.335938 124.1875 L 0.335938 154.007812 L 1431.664062 154.007812 Z M 1431.664062 27.273438 " fill-opacity="1" fill-rule="nonzero"/></g><g clip-path="url(#1edfae51fb)"><path stroke-linecap="round" transform="matrix(-0.745482, 0, 0, 0.745482, 1431.6626, -9.99999)" fill="none" stroke-linejoin="round" d="M -0.0019623 49.999104 L 159.998358 110.001189 L 330.001646 20.000682 L 1920.001882 180.001002 " stroke="#66c7dd" stroke-width="12" stroke-opacity="1" stroke-miterlimit="4"/></g></g></g></g></svg>