<svg xmlns="http://www.w3.org/2000/svg" xmlns:xlink="http://www.w3.org/1999/xlink" width="1440" zoomAndPan="magnify" viewBox="0 0 1080 123.750003" height="165" preserveAspectRatio="xMidYMid meet" version="1.0"><defs><clipPath id="93f9834975"><path d="M 1.089844 0 L 1078.910156 0 L 1078.910156 123.5 L 1.089844 123.5 Z M 1.089844 0 " clip-rule="nonzero"/></clipPath><clipPath id="6c8e690bbd"><path d="M 0.0898438 11 L 1077.910156 11 L 1077.910156 123.5 L 0.0898438 123.5 Z M 0.0898438 11 " clip-rule="nonzero"/></clipPath><clipPath id="4c34389736"><path d="M 0.0898438 8 L 1077.910156 8 L 1077.910156 106.5625 L 0.0898438 106.5625 Z M 0.0898438 8 " clip-rule="nonzero"/></clipPath><clipPath id="b5a758477e"><rect x="0" width="1078" y="0" height="124"/></clipPath></defs><g clip-path="url(#93f9834975)"><g transform="matrix(1, 0, 0, 1, 1, 0.00000000000000159)"><g clip-path="url(#b5a758477e)"><g clip-path="url(#6c8e690bbd)"><path fill="#121929" d="M -3.59375 28.574219 L 88.101562 62.867188 L 185.527344 11.429688 L 1096.726562 102.871094 L 1096.726562 125.734375 L -3.59375 125.734375 Z M -3.59375 28.574219 " fill-opacity="1" fill-rule="nonzero"/></g><g clip-path="url(#4c34389736)"><path stroke-linecap="round" transform="matrix(0.573081, 0, 0, 0.571511, -3.59211, 0.0000142953)" fill="none" stroke-linejoin="round" d="M -0.00286252 49.997633 L 160.001126 110.001656 L 330.004511 19.999038 L 1920.004101 179.998377 " stroke="#66c7dd" stroke-width="12" stroke-opacity="1" stroke-miterlimit="4"/></g></g></g></g></svg>